# xmcd
#
# Track frame offsets:
#	150
#	10527
#	25430
#	37335
#	48790
#	62907
#	75737
#	86102
#	96200
#	110830
#
# Disc length: 1667 seconds
#
# Revision: 1
# Processed by: cddbd v1.4b41PL2 Copyright (c) Steve Scherf et al.
# Submitted via: audiograbber 1.80
#
DISCID=8006810a
DTITLE=Sonny Terry and Brownie McGhee - Going Down Slow
DYEAR=1900
DGENRE=
TTITLE0=C.C. Rider Where Did She Go
TTITLE1=Pawn Shop Blues
TTITLE2=Going Down Slow
TTITLE3=I Believe
TTITLE4=Bulldog Blues
TTITLE5=Bicycle Boogie
TTITLE6=Ease My Worried Mind
TTITLE7=Key To The Highway
TTITLE8=Sweet Happy Home
TTITLE9=Lord Have Mercy
EXTD=
EXTT0=
EXTT1=
EXTT2=
EXTT3=
EXTT4=
EXTT5=
EXTT6=
EXTT7=
EXTT8=
EXTT9=
PLAYORDER=
